<svg xmlns="http://www.w3.org/2000/svg"  viewBox="0 0 60 60" width="50px" height="50px"><path fill="#333" d="M12,17H4c-1.6543,0-3,1.3457-3,3v34c0,1.6543,1.3457,3,3,3h8c1.63885,0,2.9707-1.3219,2.99542-2.95496	c0.48779,0.3703,1.03967,0.66449,1.65302,0.83679l13.04102,3.66113C33.12695,59.50977,36.67676,60,40.24023,60H47	c1.59668,0,3.10352-0.62109,4.25098-1.75684c1.07129-1.08301,1.69141-2.5127,1.74512-4.02637	c0.05664-1.57617-0.53809-3.09277-1.67285-4.26855c-0.02667-0.02765-0.0567-0.05139-0.08386-0.07855	C53.95502,49.29694,56,46.88367,56,44c0-1.72943-0.73969-3.28564-1.91412-4.38153C56.36755,38.76843,58,36.57428,58,34	c0-1.88678-0.87714-3.5705-2.24298-4.6712c0.5415-0.28015,1.04565-0.64227,1.49396-1.08563	c1.07129-1.0835,1.69141-2.51318,1.74512-4.02588c0.05664-1.57666-0.53809-3.09326-1.67285-4.26953	C56.12891,18.70996,54.46484,18,52.75879,18l-18.80566,0.00293c0.16992-1.25195,0.37012-2.9502,0.35742-3.93213	C34.22949,7.58008,31.18164,0,22.86035,0c-0.99023,0-1.91699,0.48193-2.48047,1.28906	c-0.56055,0.80566-0.68848,1.7959-0.34961,2.71484c1.37109,3.74756,1.25781,7.84326-0.31836,11.52979	c-0.72656,1.68262-2.02637,3.07422-3.66602,3.91992l-0.35938,0.18799C15.44196,19.76923,15.21594,19.91992,15,20.08173V20	C15,18.3457,13.6543,17,12,17z M13,54c0,0.55176-0.44824,1-1,1H4c-0.55176,0-1-0.44824-1-1V20c0-0.55127,0.44824-1,1-1h8	c0.55176,0,1,0.44873,1,1v4.07422v25.99414V54z M16.61328,21.41455l0.35547-0.18604c2.04395-1.05518,3.66992-2.7959,4.58105-4.90527	c1.77832-4.15967,1.90527-8.7793,0.3584-13.00928c-0.11035-0.29883-0.06934-0.62012,0.11328-0.88135	C22.21289,2.15771,22.51855,2,22.86035,2c6.85645,0,9.37695,6.24854,9.4502,12.09619c0.00879,0.67041-0.1123,1.9624-0.33984,3.63867	c-0.07715,0.57129,0.09668,1.14746,0.47559,1.58154C32.82617,19.75098,33.375,20,33.95313,20h18.80566	c1.16602,0,2.30566,0.4873,3.125,1.33643c0.75488,0.78223,1.15039,1.78027,1.11426,2.80957	c-0.03613,1.00977-0.45117,1.96533-1.16113,2.68311C55.07324,27.58398,54.06543,28,53,28h-1h-5c-0.55273,0-1,0.44775-1,1	s0.44727,1,1,1h5c2.20605,0,4,1.79395,4,4s-1.79395,4-4,4h-2h-6c-0.55273,0-1,0.44727-1,1s0.44727,1,1,1h6c2.20605,0,4,1.79395,4,4	s-1.79395,4-4,4h-3.24121H42c-0.55273,0-1,0.44727-1,1s0.44727,1,1,1h4.75879c1.16602,0,2.30566,0.4873,3.125,1.33691	c0.75488,0.78223,1.15039,1.78027,1.11426,2.80859c-0.03613,1.00977-0.45117,1.96582-1.16113,2.68359	C49.07324,57.58398,48.06641,58,47,58h-6.75977c-3.37988,0-6.74805-0.46484-10.00977-1.38281l-13.04102-3.66113	C15.90039,52.59473,15,51.40723,15,50.06836V24.07422C15,22.95264,15.61816,21.93359,16.61328,21.41455z"/></svg>